# xmcd
#
# Track frame offsets:
#	150
#	15695
#	36875
#	50360
#	66100
#	78925
#	96085
#	110400
#	128245
#	163485
#
# Disc length: 2414 seconds
# Revision: 0
# Processed by: cddbd v1.5.2PL0 Copyright (c) Steve Scherf et al.
# Submitted via: dBpowerAMP V12.0
#
DISCID=80096c0a
DTITLE=John Lee Hooker - That's Where It's At!
DYEAR=1969
DGENRE=Blues
TTITLE0=Teachin' the Blues
TTITLE1=Goin' to Louisianna
TTITLE2=I Need You
TTITLE3=My Love Comes Down for You
TTITLE4=Baby Please Don't Go
TTITLE5=I Just Don't Know
TTITLE6=Slow and Easy
TTITLE7=Two White Horses
TTITLE8=Feel So Bad
TTITLE9=Grinder Man
EXTD=
EXTT0=
EXTT1=
EXTT2=
EXTT3=
EXTT4=
EXTT5=
EXTT6=
EXTT7=
EXTT8=
EXTT9=
PLAYORDER=
